<?xml version="1.0" encoding="UTF-8" standalone="no"?>
<!-- Created with Inkscape (http://www.inkscape.org/) -->

<svg
   xmlns:dc="http://purl.org/dc/elements/1.1/"
   xmlns:cc="http://creativecommons.org/ns#"
   xmlns:rdf="http://www.w3.org/1999/02/22-rdf-syntax-ns#"
   xmlns:svg="http://www.w3.org/2000/svg"
   xmlns="http://www.w3.org/2000/svg"
   xmlns:sodipodi="http://sodipodi.sourceforge.net/DTD/sodipodi-0.dtd"
   xmlns:inkscape="http://www.inkscape.org/namespaces/inkscape"
   id="svg2"
   version="1.1"
   inkscape:version="0.91 r13725"
   xml:space="preserve"
   width="376.03751"
   height="53.012501"
   viewBox="0 0 376.03751 53.012501"
   sodipodi:docname="ucc.svg"><metadata
     id="metadata8"><rdf:RDF><cc:Work
         rdf:about=""><dc:format>image/svg+xml</dc:format><dc:type
           rdf:resource="http://purl.org/dc/dcmitype/StillImage" /><dc:title></dc:title></cc:Work></rdf:RDF></metadata><defs
     id="defs6" /><sodipodi:namedview
     pagecolor="#ffffff"
     bordercolor="#666666"
     borderopacity="1"
     objecttolerance="10"
     gridtolerance="10"
     guidetolerance="10"
     inkscape:pageopacity="0"
     inkscape:pageshadow="2"
     inkscape:window-width="1680"
     inkscape:window-height="1021"
     id="namedview4"
     showgrid="false"
     inkscape:zoom="2.0423495"
     inkscape:cx="168.29855"
     inkscape:cy="31.554417"
     inkscape:window-x="1920"
     inkscape:window-y="0"
     inkscape:window-maximized="1"
     inkscape:current-layer="g10" /><g
     id="g10"
     inkscape:groupmode="layer"
     inkscape:label="ink_ext_XXXXXX"
     transform="matrix(1.25,0,0,-1.25,0,53.0125)"><g
       id="g12"
       transform="scale(0.1,0.1)"><path
         d="m 353.379,424.063 -212.031,0 c -39.012,0 -70.6175,-31.602 -70.6644,-70.606 l -0.0703,0 0,-0.078 C 31.6016,353.32 0,321.727 0,282.715 L 0,70.6836 C 0,31.6406 31.6602,0 70.6836,0 L 282.703,0 c 39.035,0 70.676,31.6406 70.676,70.6836 39.023,0 70.664,31.6404 70.664,70.6834 l 0,212.02 c 0,39.035 -31.641,70.676 -70.664,70.676"
         style="fill:#33bbbd;fill-opacity:1;fill-rule:nonzero;stroke:none"
         id="path14"
         inkscape:connector-curvature="0" /><path
         d="m 2937.61,424.063 -2540.833,0 c 24.903,-13.731 41.778,-40.223 41.797,-70.684 l 0,-211.992 C 438.555,100 407.441,65.918 367.344,61.25 364.258,34.7734 348.32,12.2852 325.977,0 L 2931.71,0 c 42.09,0 76.57,34.4336 76.57,76.5313 l 0,276.8557 c 0,39.035 -31.65,70.676 -70.67,70.676"
         style="fill:#7b786d;fill-opacity:1;fill-rule:nonzero;stroke:none"
         id="path16"
         inkscape:connector-curvature="0" /><path
         d="m 544.91,198.27 c 0,-22.555 0,-54.723 35.285,-54.723 35.282,0 35.282,32.168 35.282,54.723 l 0,108.976 15.363,0 0,-120.254 c 0,-44.648 -23.516,-56.406 -50.645,-56.406 -27.121,0 -50.644,11.758 -50.644,56.406 l 0,120.254 15.359,0 0,-108.976"
         style="fill:#ffffff;fill-opacity:1;fill-rule:nonzero;stroke:none"
         id="path18"
         inkscape:connector-curvature="0" /><path
         d="m 674.754,133.945 -14.395,0 0,121.211 14.395,0 0,-14.883 0.48,0 c 6.961,10.086 16.329,17.286 29.286,17.286 30,0 33.125,-22.325 33.125,-38.164 l 0,-85.45 -14.403,0 0,84.727 c 0,14.16 -5.519,27.363 -22.324,27.363 -12.961,0 -26.164,-8.879 -26.164,-35.996 l 0,-76.094"
         style="fill:#ffffff;fill-opacity:1;fill-rule:nonzero;stroke:none"
         id="path20"
         inkscape:connector-curvature="0" /><path
         d="m 770.516,133.945 0,121.211 14.394,0 0,-121.211 -14.394,0 z m -1.68,155.059 0,18.242 17.754,0 0,-18.242 -17.754,0"
         style="fill:#ffffff;fill-opacity:1;fill-rule:nonzero;stroke:none"
         id="path22"
         inkscape:connector-curvature="0" /><path
         d="m 850.195,152.188 0.477,0 29.523,102.968 13.914,0 -35.996,-121.211 -16.562,0 -36.004,121.211 15.605,0 29.043,-102.968"
         style="fill:#ffffff;fill-opacity:1;fill-rule:nonzero;stroke:none"
         id="path24"
         inkscape:connector-curvature="0" /><path
         d="m 975.957,203.074 c 0,26.875 -4.328,42.961 -27.363,42.961 -23.047,0 -27.364,-16.086 -27.364,-42.961 l 54.727,0 z m -54.727,-11.523 0,-9.363 c 0,-16.797 4.559,-39.122 27.364,-39.122 17.996,0 26.875,11.524 26.64,27.84 l 15.118,0 c -1.68,-29.273 -17.52,-39.363 -41.758,-39.363 -20.891,0 -41.77,8.406 -41.77,45.129 l 0,29.762 c 0,35.039 14.641,51.125 41.77,51.125 41.758,0 41.758,-30 41.758,-66.008 l -69.122,0"
         style="fill:#ffffff;fill-opacity:1;fill-rule:nonzero;stroke:none"
         id="path26"
         inkscape:connector-curvature="0" /><path
         d="m 1029.71,133.945 -14.41,0 0,121.211 14.41,0 0,-14.883 0.47,0 c 6.97,10.086 16.32,17.286 29.28,17.286 30.01,0 33.13,-22.325 33.13,-38.164 l 0,-85.45 -14.41,0 0,84.727 c 0,14.16 -5.52,27.363 -22.31,27.363 -12.96,0 -26.16,-8.879 -26.16,-35.996 l 0,-76.094"
         style="fill:#ffffff;fill-opacity:1;fill-rule:nonzero;stroke:none"
         id="path28"
         inkscape:connector-curvature="0" /><path
         d="m 1109.86,243.633 0,11.523 19.44,0 0,24.961 14.4,6.238 0,-31.199 24.48,0 0,-11.523 -24.48,0 0,-77.766 c 0,-16.082 1.68,-19.922 13.2,-19.922 4.8,0 8.16,0.246 11.28,0.727 l 0,-12.484 c -4.31,-0.477 -9.12,-0.723 -13.68,-0.723 -19.44,0 -25.2,8.644 -25.2,23.527 l 0,86.641 -19.44,0"
         style="fill:#ffffff;fill-opacity:1;fill-rule:nonzero;stroke:none"
         id="path30"
         inkscape:connector-curvature="0" /><path
         d="m 1190.97,133.945 0,121.211 14.41,0 0,-121.211 -14.41,0 z m -1.67,155.059 0,18.242 17.76,0 0,-18.242 -17.76,0"
         style="fill:#ffffff;fill-opacity:1;fill-rule:nonzero;stroke:none"
         id="path32"
         inkscape:connector-curvature="0" /><path
         d="m 1301.38,159.148 c 2.4,5.997 2.88,27.844 2.88,35.528 0,35.762 -3.6,51.359 -27.37,51.359 -23.76,0 -27.36,-15.597 -27.36,-51.359 0,-7.684 0.49,-29.531 2.88,-35.528 1.2,-2.878 4.56,-16.082 24.48,-16.082 19.92,0 23.28,13.204 24.49,16.082 z m -66.25,22.325 0,28.8 c 0,15.36 0.24,47.286 41.76,47.286 41.53,0 41.77,-31.926 41.77,-47.286 l 0,-28.8 c 0,-31.446 -10.8,-49.93 -41.77,-49.93 -30.95,0 -41.76,18.484 -41.76,49.93"
         style="fill:#ffffff;fill-opacity:1;fill-rule:nonzero;stroke:none"
         id="path34"
         inkscape:connector-curvature="0" /><path
         d="m 1358.02,133.945 -14.41,0 0,121.211 14.41,0 0,-14.883 0.48,0 c 6.96,10.086 16.31,17.286 29.28,17.286 30,0 33.12,-22.325 33.12,-38.164 l 0,-85.45 -14.4,0 0,84.727 c 0,14.16 -5.53,27.363 -22.32,27.363 -12.96,0 -26.16,-8.879 -26.16,-35.996 l 0,-76.094"
         style="fill:#ffffff;fill-opacity:1;fill-rule:nonzero;stroke:none"
         id="path36"
         inkscape:connector-curvature="0" /><path
         d="m 1499.84,220.594 c 0,33.605 -4.07,90.011 52.33,90.011 44.89,0 42.72,-40.566 42.72,-50.167 l -15.84,0 c 0.96,19.199 -5.76,37.207 -26.88,37.207 -37.45,0 -36.97,-33.368 -36.97,-77.051 0,-43.68 -0.48,-77.047 36.97,-77.047 19.92,0 27.36,17.762 27.6,40.086 l 16.32,0 c 0,-12.481 -2.88,-53.047 -43.92,-53.047 -56.4,0 -52.33,56.406 -52.33,90.008"
         style="fill:#ffffff;fill-opacity:1;fill-rule:nonzero;stroke:none"
         id="path38"
         inkscape:connector-curvature="0" /><path
         d="m 1682.97,159.148 c 2.4,5.997 2.88,27.844 2.88,35.528 0,35.762 -3.6,51.359 -27.37,51.359 -23.76,0 -27.36,-15.597 -27.36,-51.359 0,-7.684 0.49,-29.531 2.88,-35.528 1.2,-2.878 4.56,-16.082 24.48,-16.082 19.93,0 23.29,13.204 24.49,16.082 z m -66.24,22.325 0,28.8 c 0,15.36 0.23,47.286 41.75,47.286 41.53,0 41.77,-31.926 41.77,-47.286 l 0,-28.8 c 0,-31.446 -10.8,-49.93 -41.77,-49.93 -30.95,0 -41.75,18.484 -41.75,49.93"
         style="fill:#ffffff;fill-opacity:1;fill-rule:nonzero;stroke:none"
         id="path40"
         inkscape:connector-curvature="0" /><path
         d="m 1740.56,238.84 0.48,0 c 6.01,11.519 18.73,18.719 33.37,18.719 l 0,-14.637 c -20.4,1.676 -33.85,-10.57 -33.85,-30.969 l 0,-78.008 -14.39,0 0,121.211 14.39,0 0,-16.316"
         style="fill:#ffffff;fill-opacity:1;fill-rule:nonzero;stroke:none"
         id="path42"
         inkscape:connector-curvature="0" /><path
         d="m 1805.6,183.867 c 0,-27.597 12.48,-40.801 25.69,-40.801 19.92,0 23.28,13.204 24.48,16.082 2.4,5.997 2.88,27.844 2.88,35.528 0,23.996 0,51.359 -25.68,51.359 -11.05,0 -27.37,-10.558 -27.37,-40.558 l 0,-21.61 z m -0.47,56.649 0.47,0.246 c 7.69,11.758 19.69,16.797 29.29,16.797 37.92,0 38.16,-33.125 38.16,-48.965 l 0,-27.121 c 0,-31.446 -10.8,-49.93 -41.76,-49.93 -8.88,0 -17.77,4.324 -25.21,15.848 l -0.48,0.238 0,-59.5235 -14.4,0 0,167.0505 13.93,0 0,-14.64"
         style="fill:#ffffff;fill-opacity:1;fill-rule:nonzero;stroke:none"
         id="path44"
         inkscape:connector-curvature="0" /><path
         d="m 1959.2,159.148 c 2.4,5.997 2.88,27.844 2.88,35.528 0,35.762 -3.6,51.359 -27.37,51.359 -23.75,0 -27.36,-15.597 -27.36,-51.359 0,-7.684 0.49,-29.531 2.88,-35.528 1.2,-2.878 4.56,-16.082 24.48,-16.082 19.93,0 23.29,13.204 24.49,16.082 z m -66.24,22.325 0,28.8 c 0,15.36 0.23,47.286 41.75,47.286 41.53,0 41.77,-31.926 41.77,-47.286 l 0,-28.8 c 0,-31.446 -10.8,-49.93 -41.77,-49.93 -30.95,0 -41.75,18.484 -41.75,49.93"
         style="fill:#ffffff;fill-opacity:1;fill-rule:nonzero;stroke:none"
         id="path46"
         inkscape:connector-curvature="0" /><path
         d="m 2016.8,238.84 0.47,0 c 6.01,11.519 18.73,18.719 33.37,18.719 l 0,-14.637 c -20.4,1.676 -33.84,-10.57 -33.84,-30.969 l 0,-78.008 -14.4,0 0,121.211 14.4,0 0,-16.316"
         style="fill:#ffffff;fill-opacity:1;fill-rule:nonzero;stroke:none"
         id="path48"
         inkscape:connector-curvature="0" /><path
         d="m 2128.64,195.867 c -20.64,-0.711 -51.84,1.68 -51.84,-27.84 0,-13.683 6.96,-24.961 21.84,-24.961 16.55,0 30,14.883 30,30.723 l 0,22.078 z m 0.96,-47.039 -0.48,0 c -7.68,-11.523 -19.44,-17.285 -34.33,-17.285 -21.6,0 -33.36,14.648 -33.36,35.77 0,42.484 42.73,38.164 67.21,40.078 l 0,10.078 c 0,17.765 -5.28,28.566 -24.48,28.566 -13.2,0 -23.76,-6.476 -23.76,-20.879 l -15.36,0 c 1.2,23.282 19.2,32.403 40.32,32.403 12.24,0 37.69,-1.204 37.69,-32.161 l 0,-60.964 c 0,-8.641 0,-16.329 1.43,-30.489 l -14.88,0 0,14.883"
         style="fill:#ffffff;fill-opacity:1;fill-rule:nonzero;stroke:none"
         id="path50"
         inkscape:connector-curvature="0" /><path
         d="m 2161.51,243.633 0,11.523 19.45,0 0,24.961 14.4,6.238 0,-31.199 24.48,0 0,-11.523 -24.48,0 0,-77.766 c 0,-16.082 1.68,-19.922 13.2,-19.922 4.8,0 8.16,0.246 11.28,0.727 l 0,-12.484 c -4.32,-0.477 -9.12,-0.723 -13.68,-0.723 -19.44,0 -25.2,8.644 -25.2,23.527 l 0,86.641 -19.45,0"
         style="fill:#ffffff;fill-opacity:1;fill-rule:nonzero;stroke:none"
         id="path52"
         inkscape:connector-curvature="0" /><path
         d="m 2303.84,203.074 c 0,26.875 -4.32,42.961 -27.37,42.961 -23.03,0 -27.36,-16.086 -27.36,-42.961 l 54.73,0 z m -54.73,-11.523 0,-9.363 c 0,-16.797 4.56,-39.122 27.36,-39.122 18.01,0 26.89,11.524 26.65,27.84 l 15.12,0 c -1.68,-29.273 -17.52,-39.363 -41.77,-39.363 -20.88,0 -41.76,8.406 -41.76,45.129 l 0,29.762 c 0,35.039 14.64,51.125 41.76,51.125 41.77,0 41.77,-30 41.77,-66.008 l -69.13,0"
         style="fill:#ffffff;fill-opacity:1;fill-rule:nonzero;stroke:none"
         id="path54"
         inkscape:connector-curvature="0" /><path
         d="m 2394.06,220.594 c 0,33.605 -4.07,90.011 52.32,90.011 44.9,0 42.73,-40.566 42.73,-50.167 l -15.84,0 c 0.96,19.199 -5.76,37.207 -26.89,37.207 -37.44,0 -36.96,-33.368 -36.96,-77.051 0,-43.68 -0.48,-77.047 36.96,-77.047 19.93,0 27.37,17.762 27.61,40.086 l 16.32,0 c 0,-12.481 -2.88,-53.047 -43.93,-53.047 -56.39,0 -52.32,56.406 -52.32,90.008"
         style="fill:#ffffff;fill-opacity:1;fill-rule:nonzero;stroke:none"
         id="path56"
         inkscape:connector-curvature="0" /><path
         d="m 2518.87,133.945 14.3984,0 0,173.301 -14.3984,0 0,-173.301 z"
         style="fill:#ffffff;fill-opacity:1;fill-rule:nonzero;stroke:none"
         id="path58"
         inkscape:connector-curvature="0" /><path
         d="m 2570.95,133.945 0,121.211 14.4,0 0,-121.211 -14.4,0 z m -1.68,155.059 0,18.242 17.76,0 0,-18.242 -17.76,0"
         style="fill:#ffffff;fill-opacity:1;fill-rule:nonzero;stroke:none"
         id="path60"
         inkscape:connector-curvature="0" /><path
         d="m 2684.22,203.074 c 0,26.875 -4.32,42.961 -27.37,42.961 -23.03,0 -27.36,-16.086 -27.36,-42.961 l 54.73,0 z m -54.73,-11.523 0,-9.363 c 0,-16.797 4.56,-39.122 27.36,-39.122 18.01,0 26.89,11.524 26.65,27.84 l 15.12,0 c -1.68,-29.273 -17.52,-39.363 -41.77,-39.363 -20.87,0 -41.75,8.406 -41.75,45.129 l 0,29.762 c 0,35.039 14.63,51.125 41.75,51.125 41.77,0 41.77,-30 41.77,-66.008 l -69.13,0"
         style="fill:#ffffff;fill-opacity:1;fill-rule:nonzero;stroke:none"
         id="path62"
         inkscape:connector-curvature="0" /><path
         d="m 2737.98,133.945 -14.41,0 0,121.211 14.41,0 0,-14.883 0.48,0 c 6.96,10.086 16.31,17.286 29.28,17.286 30,0 33.12,-22.325 33.12,-38.164 l 0,-85.45 -14.4,0 0,84.727 c 0,14.16 -5.52,27.363 -22.32,27.363 -12.96,0 -26.16,-8.879 -26.16,-35.996 l 0,-76.094"
         style="fill:#ffffff;fill-opacity:1;fill-rule:nonzero;stroke:none"
         id="path64"
         inkscape:connector-curvature="0" /><path
         d="m 2818.12,243.633 0,11.523 19.45,0 0,24.961 14.4,6.238 0,-31.199 24.48,0 0,-11.523 -24.48,0 0,-77.766 c 0,-16.082 1.68,-19.922 13.2,-19.922 4.8,0 8.16,0.246 11.28,0.727 l 0,-12.484 c -4.32,-0.477 -9.12,-0.723 -13.68,-0.723 -19.44,0 -25.2,8.644 -25.2,23.527 l 0,86.641 -19.45,0"
         style="fill:#ffffff;fill-opacity:1;fill-rule:nonzero;stroke:none"
         id="path66"
         inkscape:connector-curvature="0" /><path
         d="m 38.2227,295.887 22.5195,0 0,-115.703 c 0,-39.571 11.7383,-49.59 33.0469,-49.59 21.2889,0 33.0269,10.019 33.0269,49.59 l 0,115.703 22.52,0 0,-114.707 c 0,-50.094 -18.106,-69.871 -55.5469,-69.871 -37.4414,0 -55.5664,19.777 -55.5664,69.871 l 0,114.707"
         style="fill:#ffffff;fill-opacity:1;fill-rule:nonzero;stroke:none"
         id="path68"
         inkscape:connector-curvature="0" /><path
         d="m 240.625,246.047 c 0.242,10.269 -0.488,20.543 -5.137,26.305 -4.648,5.761 -15.175,7.753 -19.824,7.753 -18.605,0 -25.949,-11.519 -26.68,-14.019 -0.73,-1.996 -5.144,-6.508 -5.144,-37.563 l 0,-48.339 c 0,-44.344 14.195,-49.59 31.582,-49.59 6.844,0 27.644,2.5 27.887,37.804 l 23.254,0 c 0.976,-57.101 -38.411,-57.101 -49.922,-57.101 -22.032,0 -55.813,1.504 -55.813,71.633 l 0,51.101 c 0,51.086 22.031,65.617 56.789,65.617 35.012,0 48.457,-18.546 46.262,-53.601 l -23.254,0"
         style="fill:#ffffff;fill-opacity:1;fill-rule:nonzero;stroke:none"
         id="path70"
         inkscape:connector-curvature="0" /><path
         d="m 360.547,246.047 c 0.254,10.269 -0.496,20.543 -5.137,26.305 -4.648,5.761 -15.168,7.753 -19.824,7.753 -18.613,0 -25.938,-11.519 -26.68,-14.019 -0.722,-1.996 -5.148,-6.508 -5.148,-37.563 l 0,-48.339 c 0,-44.344 14.211,-49.59 31.574,-49.59 6.856,0 27.656,2.5 27.91,37.804 l 23.242,0 c 0.977,-57.101 -38.41,-57.101 -49.921,-57.101 -22.032,0 -55.809,1.504 -55.809,71.633 l 0,51.101 c 0,51.086 22.019,65.617 56.797,65.617 34.988,0 48.445,-18.546 46.238,-53.601 l -23.242,0"
         style="fill:#ffffff;fill-opacity:1;fill-rule:nonzero;stroke:none"
         id="path72"
         inkscape:connector-curvature="0" /></g></g></svg>