<?xml version="1.0" encoding="UTF-8" standalone="no"?>
<svg
   xmlns:dc="http://purl.org/dc/elements/1.1/"
   xmlns:cc="http://creativecommons.org/ns#"
   xmlns:rdf="http://www.w3.org/1999/02/22-rdf-syntax-ns#"
   xmlns:svg="http://www.w3.org/2000/svg"
   xmlns="http://www.w3.org/2000/svg"
   viewBox="0 0 393.75 53.012501"
   height="53.012501"
   width="393.75"
   xml:space="preserve"
   version="1.1"
   id="svg2"><metadata
     id="metadata8"><rdf:RDF><cc:Work
         rdf:about=""><dc:format>image/svg+xml</dc:format><dc:type
           rdf:resource="http://purl.org/dc/dcmitype/StillImage" /></cc:Work></rdf:RDF></metadata><defs
     id="defs6" /><g
     transform="matrix(1.25,0,0,-1.25,0,53.0125)"
     id="g10"><g
       transform="scale(0.1,0.1)"
       id="g12"><path
         id="path14"
         style="fill:#33bbbd;fill-opacity:1;fill-rule:nonzero;stroke:none"
         d="m 353.379,424.063 -212.031,0 c -39.012,0 -70.6175,-31.602 -70.6644,-70.606 l -0.0703,0 0,-0.078 C 31.6016,353.32 0,321.73 0,282.715 L 0,70.6836 C 0,31.6406 31.6602,0 70.6836,0 L 282.703,0 c 39.035,0 70.676,31.6406 70.676,70.6836 39.023,0 70.664,31.6404 70.664,70.6834 l 0,212.024 c 0,39.031 -31.641,70.672 -70.664,70.672" /><path
         id="path16"
         style="fill:#7b786d;fill-opacity:1;fill-rule:nonzero;stroke:none"
         d="m 3079.34,424.063 -2682.563,0 c 24.903,-13.731 41.778,-40.223 41.797,-70.684 l 0,-211.992 C 438.555,100 407.441,65.918 367.344,61.25 364.258,34.7773 348.32,12.2852 325.977,0 L 3073.46,0 c 42.09,0 76.54,34.4336 76.54,76.5352 l 0,276.8558 c 0,39.031 -31.64,70.672 -70.66,70.672" /><path
         id="path18"
         style="fill:#ffffff;fill-opacity:1;fill-rule:nonzero;stroke:none"
         d="m 550.496,145.656 22.695,57.949 -23.289,57.95 15.528,0 26.894,-57.95 -25.996,-57.949 -15.832,0 z m -43.902,0 22.715,57.949 -23.301,57.95 15.523,0 26.875,-57.95 -25.984,-57.949 -15.828,0" /><path
         id="path20"
         style="fill:#ffffff;fill-opacity:1;fill-rule:nonzero;stroke:none"
         d="m 674.91,188.273 c 0,-22.558 0,-54.726 35.285,-54.726 35.285,0 35.285,32.168 35.285,54.726 l 0,108.973 15.36,0 0,-120.254 c 0,-44.648 -23.516,-56.406 -50.645,-56.406 -27.121,0 -50.644,11.758 -50.644,56.406 l 0,120.254 15.359,0 0,-108.973" /><path
         id="path22"
         style="fill:#ffffff;fill-opacity:1;fill-rule:nonzero;stroke:none"
         d="m 804.758,123.945 -14.399,0 0,121.211 14.399,0 0,-14.883 0.476,0 c 6.961,10.09 16.329,17.286 29.286,17.286 30,0 33.125,-22.325 33.125,-38.164 l 0,-85.45 -14.403,0 0,84.727 c 0,14.16 -5.515,27.363 -22.324,27.363 -12.957,0 -26.16,-8.875 -26.16,-35.996 l 0,-76.094" /><path
         id="path24"
         style="fill:#ffffff;fill-opacity:1;fill-rule:nonzero;stroke:none"
         d="m 900.52,123.945 0,121.211 14.39,0 0,-121.211 -14.39,0 z m -1.68,155.059 0,18.242 17.754,0 0,-18.242 -17.754,0" /><path
         id="path26"
         style="fill:#ffffff;fill-opacity:1;fill-rule:nonzero;stroke:none"
         d="m 980.195,142.188 0.481,0 29.524,102.968 13.91,0 -35.997,-121.211 -16.558,0 -36.008,121.211 15.605,0 29.043,-102.968" /><path
         id="path28"
         style="fill:#ffffff;fill-opacity:1;fill-rule:nonzero;stroke:none"
         d="m 1105.96,193.078 c 0,26.875 -4.33,42.957 -27.37,42.957 -23.04,0 -27.36,-16.082 -27.36,-42.957 l 54.73,0 z m -54.73,-11.523 0,-9.367 c 0,-16.797 4.56,-39.122 27.36,-39.122 18,0 26.88,11.524 26.64,27.844 l 15.12,0 c -1.68,-29.277 -17.52,-39.367 -41.76,-39.367 -20.88,0 -41.76,8.41 -41.76,45.129 l 0,29.766 c 0,35.039 14.63,51.121 41.76,51.121 41.76,0 41.76,-30 41.76,-66.004 l -69.12,0" /><path
         id="path30"
         style="fill:#ffffff;fill-opacity:1;fill-rule:nonzero;stroke:none"
         d="m 1159.71,123.945 -14.41,0 0,121.211 14.41,0 0,-14.883 0.48,0 c 6.96,10.09 16.31,17.286 29.27,17.286 30.01,0 33.13,-22.325 33.13,-38.164 l 0,-85.45 -14.41,0 0,84.727 c 0,14.16 -5.51,27.363 -22.31,27.363 -12.96,0 -26.16,-8.875 -26.16,-35.996 l 0,-76.094" /><path
         id="path32"
         style="fill:#ffffff;fill-opacity:1;fill-rule:nonzero;stroke:none"
         d="m 1239.86,233.633 0,11.523 19.44,0 0,24.961 14.4,6.242 0,-31.203 24.48,0 0,-11.523 -24.48,0 0,-77.762 c 0,-16.086 1.68,-19.922 13.2,-19.922 4.8,0 8.16,0.242 11.28,0.723 l 0,-12.481 c -4.31,-0.48 -9.12,-0.722 -13.68,-0.722 -19.44,0 -25.2,8.64 -25.2,23.523 l 0,86.641 -19.44,0" /><path
         id="path34"
         style="fill:#ffffff;fill-opacity:1;fill-rule:nonzero;stroke:none"
         d="m 1320.98,123.945 0,121.211 14.4,0 0,-121.211 -14.4,0 z m -1.68,155.059 0,18.242 17.76,0 0,-18.242 -17.76,0" /><path
         id="path36"
         style="fill:#ffffff;fill-opacity:1;fill-rule:nonzero;stroke:none"
         d="m 1431.38,149.152 c 2.4,5.996 2.88,27.84 2.88,35.528 0,35.761 -3.6,51.355 -27.37,51.355 -23.76,0 -27.36,-15.594 -27.36,-51.355 0,-7.688 0.49,-29.532 2.88,-35.528 1.2,-2.882 4.56,-16.086 24.48,-16.086 19.93,0 23.29,13.204 24.49,16.086 z m -66.24,22.325 0,28.796 c 0,15.364 0.23,47.286 41.75,47.286 41.53,0 41.77,-31.922 41.77,-47.286 l 0,-28.796 c 0,-31.446 -10.8,-49.934 -41.77,-49.934 -30.95,0 -41.75,18.488 -41.75,49.934" /><path
         id="path38"
         style="fill:#ffffff;fill-opacity:1;fill-rule:nonzero;stroke:none"
         d="m 1488.02,123.945 -14.41,0 0,121.211 14.41,0 0,-14.883 0.48,0 c 6.96,10.09 16.31,17.286 29.28,17.286 30,0 33.12,-22.325 33.12,-38.164 l 0,-85.45 -14.4,0 0,84.727 c 0,14.16 -5.52,27.363 -22.32,27.363 -12.96,0 -26.16,-8.875 -26.16,-35.996 l 0,-76.094" /><path
         id="path40"
         style="fill:#ffffff;fill-opacity:1;fill-rule:nonzero;stroke:none"
         d="m 1629.84,210.598 c 0,33.601 -4.07,90.007 52.33,90.007 44.89,0 42.72,-40.566 42.72,-50.164 l -15.84,0 c 0.96,19.2 -5.76,37.207 -26.88,37.207 -37.44,0 -36.96,-33.371 -36.96,-77.05 0,-43.684 -0.48,-77.051 36.96,-77.051 19.92,0 27.36,17.762 27.61,40.086 l 16.31,0 c 0,-12.481 -2.88,-53.047 -43.92,-53.047 -56.4,0 -52.33,56.406 -52.33,90.012" /><path
         id="path42"
         style="fill:#ffffff;fill-opacity:1;fill-rule:nonzero;stroke:none"
         d="m 1812.97,149.152 c 2.4,5.996 2.88,27.84 2.88,35.528 0,35.761 -3.59,51.355 -27.36,51.355 -23.76,0 -27.37,-15.594 -27.37,-51.355 0,-7.688 0.49,-29.532 2.88,-35.528 1.21,-2.882 4.56,-16.086 24.49,-16.086 19.92,0 23.28,13.204 24.48,16.086 z m -66.24,22.325 0,28.796 c 0,15.364 0.23,47.286 41.76,47.286 41.52,0 41.76,-31.922 41.76,-47.286 l 0,-28.796 c 0,-31.446 -10.8,-49.934 -41.76,-49.934 -30.96,0 -41.76,18.488 -41.76,49.934" /><path
         id="path44"
         style="fill:#ffffff;fill-opacity:1;fill-rule:nonzero;stroke:none"
         d="m 1870.57,228.84 0.47,0 c 6.01,11.523 18.74,18.719 33.37,18.719 l 0,-14.637 c -20.4,1.68 -33.84,-10.567 -33.84,-30.969 l 0,-78.008 -14.4,0 0,121.211 14.4,0 0,-16.316" /><path
         id="path46"
         style="fill:#ffffff;fill-opacity:1;fill-rule:nonzero;stroke:none"
         d="m 1935.61,173.867 c 0,-27.597 12.48,-40.801 25.68,-40.801 19.92,0 23.28,13.204 24.48,16.086 2.4,5.996 2.88,27.84 2.88,35.528 0,23.992 0,51.355 -25.68,51.355 -11.05,0 -27.36,-10.555 -27.36,-40.555 l 0,-21.613 z m -0.48,56.653 0.48,0.242 c 7.68,11.758 19.68,16.797 29.28,16.797 37.92,0 38.17,-33.125 38.17,-48.965 l 0,-27.117 c 0,-31.446 -10.8,-49.934 -41.77,-49.934 -8.88,0 -17.76,4.328 -25.21,15.852 l -0.47,0.234 0,-59.5235 -14.41,0 0,167.0505 13.93,0 0,-14.636" /><path
         id="path48"
         style="fill:#ffffff;fill-opacity:1;fill-rule:nonzero;stroke:none"
         d="m 2089.2,149.152 c 2.4,5.996 2.88,27.84 2.88,35.528 0,35.761 -3.59,51.355 -27.36,51.355 -23.76,0 -27.37,-15.594 -27.37,-51.355 0,-7.688 0.49,-29.532 2.88,-35.528 1.21,-2.882 4.56,-16.086 24.49,-16.086 19.92,0 23.28,13.204 24.48,16.086 z m -66.24,22.325 0,28.796 c 0,15.364 0.23,47.286 41.76,47.286 41.52,0 41.76,-31.922 41.76,-47.286 l 0,-28.796 c 0,-31.446 -10.8,-49.934 -41.76,-49.934 -30.96,0 -41.76,18.488 -41.76,49.934" /><path
         id="path50"
         style="fill:#ffffff;fill-opacity:1;fill-rule:nonzero;stroke:none"
         d="m 2146.8,228.84 0.48,0 c 6,11.523 18.73,18.719 33.36,18.719 l 0,-14.637 c -20.4,1.68 -33.84,-10.567 -33.84,-30.969 l 0,-78.008 -14.4,0 0,121.211 14.4,0 0,-16.316" /><path
         id="path52"
         style="fill:#ffffff;fill-opacity:1;fill-rule:nonzero;stroke:none"
         d="m 2258.64,185.871 c -20.64,-0.715 -51.84,1.68 -51.84,-27.844 0,-13.679 6.96,-24.961 21.84,-24.961 16.56,0 30,14.883 30,30.723 l 0,22.082 z m 0.96,-47.043 -0.48,0 c -7.67,-11.523 -19.44,-17.285 -34.33,-17.285 -21.6,0 -33.35,14.648 -33.35,35.773 0,42.481 42.72,38.164 67.2,40.079 l 0,10.078 c 0,17.761 -5.28,28.562 -24.48,28.562 -13.2,0 -23.76,-6.472 -23.76,-20.879 l -15.36,0 c 1.2,23.282 19.2,32.403 40.32,32.403 12.24,0 37.69,-1.2 37.69,-32.157 l 0,-60.968 c 0,-8.641 0,-16.329 1.43,-30.489 l -14.88,0 0,14.883" /><path
         id="path54"
         style="fill:#ffffff;fill-opacity:1;fill-rule:nonzero;stroke:none"
         d="m 2291.51,233.633 0,11.523 19.45,0 0,24.961 14.4,6.242 0,-31.203 24.48,0 0,-11.523 -24.48,0 0,-77.762 c 0,-16.086 1.68,-19.922 13.2,-19.922 4.8,0 8.16,0.242 11.28,0.723 l 0,-12.481 c -4.32,-0.48 -9.12,-0.722 -13.68,-0.722 -19.44,0 -25.2,8.64 -25.2,23.523 l 0,86.641 -19.45,0" /><path
         id="path56"
         style="fill:#ffffff;fill-opacity:1;fill-rule:nonzero;stroke:none"
         d="m 2433.84,193.078 c 0,26.875 -4.32,42.957 -27.37,42.957 -23.03,0 -27.36,-16.082 -27.36,-42.957 l 54.73,0 z m -54.73,-11.523 0,-9.367 c 0,-16.797 4.56,-39.122 27.36,-39.122 18.01,0 26.89,11.524 26.66,27.844 l 15.11,0 c -1.68,-29.277 -17.52,-39.367 -41.77,-39.367 -20.87,0 -41.75,8.41 -41.75,45.129 l 0,29.766 c 0,35.039 14.64,51.121 41.75,51.121 41.77,0 41.77,-30 41.77,-66.004 l -69.13,0" /><path
         id="path58"
         style="fill:#ffffff;fill-opacity:1;fill-rule:nonzero;stroke:none"
         d="m 2524.06,210.598 c 0,33.601 -4.07,90.007 52.33,90.007 44.89,0 42.72,-40.566 42.72,-50.164 l -15.84,0 c 0.96,19.2 -5.76,37.207 -26.88,37.207 -37.44,0 -36.97,-33.371 -36.97,-77.05 0,-43.684 -0.47,-77.051 36.97,-77.051 19.92,0 27.36,17.762 27.6,40.086 l 16.32,0 c 0,-12.481 -2.88,-53.047 -43.92,-53.047 -56.4,0 -52.33,56.406 -52.33,90.012" /><path
         id="path60"
         style="fill:#ffffff;fill-opacity:1;fill-rule:nonzero;stroke:none"
         d="m 2648.87,123.945 14.3984,0 0,173.301 -14.3984,0 0,-173.301 z" /><path
         id="path62"
         style="fill:#ffffff;fill-opacity:1;fill-rule:nonzero;stroke:none"
         d="m 2700.95,123.945 0,121.211 14.4,0 0,-121.211 -14.4,0 z m -1.68,155.059 0,18.242 17.76,0 0,-18.242 -17.76,0" /><path
         id="path64"
         style="fill:#ffffff;fill-opacity:1;fill-rule:nonzero;stroke:none"
         d="m 2814.22,193.078 c 0,26.875 -4.32,42.957 -27.36,42.957 -23.04,0 -27.37,-16.082 -27.37,-42.957 l 54.73,0 z m -54.73,-11.523 0,-9.367 c 0,-16.797 4.56,-39.122 27.37,-39.122 18,0 26.88,11.524 26.65,27.844 l 15.11,0 c -1.68,-29.277 -17.52,-39.367 -41.76,-39.367 -20.88,0 -41.76,8.41 -41.76,45.129 l 0,29.766 c 0,35.039 14.64,51.121 41.76,51.121 41.76,0 41.76,-30 41.76,-66.004 l -69.13,0" /><path
         id="path66"
         style="fill:#ffffff;fill-opacity:1;fill-rule:nonzero;stroke:none"
         d="m 2867.98,123.945 -14.41,0 0,121.211 14.41,0 0,-14.883 0.48,0 c 6.96,10.09 16.32,17.286 29.28,17.286 30,0 33.12,-22.325 33.12,-38.164 l 0,-85.45 -14.4,0 0,84.727 c 0,14.16 -5.52,27.363 -22.32,27.363 -12.96,0 -26.16,-8.875 -26.16,-35.996 l 0,-76.094" /><path
         id="path68"
         style="fill:#ffffff;fill-opacity:1;fill-rule:nonzero;stroke:none"
         d="m 2948.13,233.633 0,11.523 19.44,0 0,24.961 14.4,6.242 0,-31.203 24.49,0 0,-11.523 -24.49,0 0,-77.762 c 0,-16.086 1.68,-19.922 13.21,-19.922 4.79,0 8.15,0.242 11.28,0.723 l 0,-12.481 c -4.33,-0.48 -9.13,-0.722 -13.69,-0.722 -19.44,0 -25.2,8.64 -25.2,23.523 l 0,86.641 -19.44,0" /><path
         id="path70"
         style="fill:#ffffff;fill-opacity:1;fill-rule:nonzero;stroke:none"
         d="m 38.2227,295.891 22.5195,0 0,-115.703 c 0,-39.571 11.7383,-49.59 33.0469,-49.59 21.2889,0 33.0269,10.019 33.0269,49.59 l 0,115.703 22.52,0 0,-114.707 c 0,-50.098 -18.106,-69.875 -55.5469,-69.875 -37.4414,0 -55.5664,19.777 -55.5664,69.875 l 0,114.707" /><path
         id="path72"
         style="fill:#ffffff;fill-opacity:1;fill-rule:nonzero;stroke:none"
         d="m 240.625,246.047 c 0.242,10.273 -0.488,20.547 -5.137,26.308 -4.648,5.762 -15.175,7.754 -19.824,7.754 -18.601,0 -25.945,-11.523 -26.68,-14.023 -0.73,-1.992 -5.144,-6.504 -5.144,-37.559 l 0,-48.339 c 0,-44.348 14.195,-49.59 31.582,-49.59 6.844,0 27.644,2.5 27.891,37.8 l 23.25,0 c 0.976,-57.097 -38.411,-57.097 -49.922,-57.097 -22.032,0 -55.813,1.504 -55.813,71.629 l 0,51.105 c 0,51.082 22.031,65.613 56.789,65.613 35.012,0 48.457,-18.543 46.262,-53.601 l -23.254,0" /><path
         id="path74"
         style="fill:#ffffff;fill-opacity:1;fill-rule:nonzero;stroke:none"
         d="m 360.547,246.047 c 0.254,10.273 -0.496,20.547 -5.137,26.308 -4.648,5.762 -15.168,7.754 -19.824,7.754 -18.613,0 -25.938,-11.523 -26.68,-14.023 -0.722,-1.992 -5.144,-6.504 -5.144,-37.559 l 0,-48.339 c 0,-44.348 14.207,-49.59 31.57,-49.59 6.856,0 27.656,2.5 27.91,37.8 l 23.242,0 c 0.977,-57.097 -38.41,-57.097 -49.921,-57.097 -22.032,0 -55.809,1.504 -55.809,71.629 l 0,51.105 c 0,51.082 22.019,65.613 56.797,65.613 34.988,0 48.445,-18.543 46.238,-53.601 l -23.242,0" /></g></g></svg>